<svg width="18" height="18" viewBox="0 0 18 18" fill="none" xmlns="http://www.w3.org/2000/svg">
<path d="M5.04167 7.92232H6.48218V9.36283H5.04167V7.92232ZM15.1252 4.32105V14.4046C15.1252 15.1969 14.477 15.8451 13.6847 15.8451H3.60116C3.21911 15.8451 2.85271 15.6934 2.58256 15.4232C2.31241 15.1531 2.16064 14.7867 2.16064 14.4046L2.16785 4.32105C2.16785 3.52877 2.80167 2.88054 3.60116 2.88054H4.32141V1.44003H5.76192V2.88054H11.524V1.44003H12.9645V2.88054H13.6847C14.477 2.88054 15.1252 3.52877 15.1252 4.32105ZM3.60116 5.76156H13.6847V4.32105H3.60116V5.76156ZM13.6847 14.4046V7.20207H3.60116V14.4046H13.6847ZM10.8037 9.36283H12.2442V7.92232H10.8037V9.36283ZM7.92269 9.36283H9.3632V7.92232H7.92269V9.36283Z" fill="#60554D"/>
</svg>
