<svg width="39" height="39" viewBox="0 0 39 39" fill="none" xmlns="http://www.w3.org/2000/svg">
<path d="M38.2126 18.4506C38.1909 18.2549 38.1692 18.0484 38.1365 17.8527C38.0822 17.4179 38.0387 16.9722 37.9735 16.5266C37.5278 13.3742 36.3647 10.4827 34.5385 7.94989C32.9732 5.76496 30.9839 3.99311 28.6468 2.68868C26.5271 1.50381 24.19 0.764628 21.6898 0.482001C20.9724 0.395038 20.2332 0.351562 19.5157 0.351562C18.2439 0.351562 16.983 0.482003 15.722 0.74289V0.732023L15.5372 0.786374C15.2437 0.851596 14.9611 0.916807 14.6676 0.992899C14.298 1.09073 13.9175 1.21032 13.548 1.32989C13.211 1.42772 12.9283 1.51468 12.6566 1.61251C9.71074 2.66693 7.14534 4.43879 5.02564 6.88461C2.90593 9.31955 1.47106 12.1349 0.742746 15.233C0.231842 17.4179 0.101398 19.6028 0.340544 21.7334C0.590561 23.9075 1.14494 25.9402 1.99282 27.7664C2.9168 29.7448 4.17775 31.5058 5.73221 32.995C7.47145 34.6582 9.51507 35.9518 11.9826 36.9518C13.0588 37.3866 14.1132 37.5932 15.0915 37.7454C15.6024 37.8541 16.1351 37.941 16.6569 38.0062C16.8416 38.028 17.0156 38.0497 17.2004 38.0715C17.7656 38.1693 18.4831 38.2128 19.3418 38.2128C19.6897 38.2128 20.0266 38.2019 20.3419 38.191L20.081 38.2998L21.2115 38.1476C21.6898 38.115 22.0703 38.0606 22.2659 38.028L22.3203 38.0171C22.3529 38.0063 22.3746 37.9954 22.3964 37.9845C23.8313 37.778 25.2118 37.441 26.4945 36.9627C28.2011 36.3214 29.7882 35.4626 31.1904 34.3864C32.8645 33.1037 34.2885 31.5493 35.3972 29.7448C36.506 27.9621 37.2669 26.0707 37.6691 24.1032C37.7996 23.4509 37.8974 22.7878 37.9844 22.1356C38.0279 21.8312 38.0713 21.5378 38.1148 21.2334C38.1257 21.179 38.1366 21.1138 38.1474 21.0595L38.1692 20.9616L38.18 18.5158L38.2126 18.4506ZM23.2986 6.15629C24.7117 6.15629 25.8857 7.34116 25.8749 8.73256C25.864 10.124 24.69 11.3088 23.2986 11.3088C21.9072 11.3088 20.7332 10.124 20.7332 8.73256C20.7441 7.34116 21.9181 6.15629 23.2986 6.15629ZM26.1575 34.1473C25.1792 35.6365 23.8747 36.7236 22.2985 37.3866C21.9507 37.4301 21.592 37.4736 21.2332 37.5062C19.9723 37.6149 18.6679 37.604 17.3308 37.4627C16.8634 37.3758 16.4068 37.3105 15.9612 37.2453C15.722 37.2127 15.4829 37.1801 15.2437 37.1366C13.8741 36.854 12.5479 36.4192 11.2978 35.8539C9.92815 35.2343 8.65632 34.4517 7.51494 33.5386C6.47139 32.7015 5.53655 31.7667 4.73214 30.7449C3.76469 29.5166 2.96028 28.1686 2.35155 26.7229C1.78629 25.3641 1.40584 24.0705 1.18843 22.7444C1.11234 22.2443 1.04712 21.7225 0.981894 21.2116C0.949283 20.9834 0.927537 20.7551 0.894926 20.5268V18.3745C0.894926 18.3636 0.894924 18.3636 0.905794 18.3528C0.916664 18.2984 0.93841 18.2332 0.93841 18.1571C1.05798 16.6787 1.34061 15.233 1.77542 13.8851C2.34067 12.135 3.15594 10.4827 4.22123 8.9717C5.50393 7.14549 7.10187 5.55843 8.96069 4.26487C10.4608 3.22132 12.0696 2.41691 13.7545 1.85165C14.0371 1.76469 14.3306 1.68861 14.6241 1.61251C14.7654 1.56903 14.9176 1.53642 15.0589 1.49294C15.0154 1.80818 14.9828 2.11255 14.9394 2.41692C14.8089 3.39524 14.6893 4.33008 14.5915 5.26493C14.4067 6.8846 14.2545 8.81952 14.4828 10.7979C14.6785 12.5154 15.1459 13.9394 15.8959 15.1678C16.6134 16.3418 17.5047 17.3418 18.5592 18.1245C19.6136 18.918 20.7115 19.6898 21.8311 20.3964C22.1898 20.6246 22.5703 20.7877 22.9508 20.9508C23.2116 21.0595 23.4617 21.1682 23.7008 21.2986C25.2661 22.1248 26.3966 23.114 27.1576 24.3314C27.8424 25.4293 28.1685 26.6794 28.125 28.0382C28.0272 30.2557 27.375 32.2993 26.1575 34.1473Z" fill="white"/>
<path d="M15.4414 24.2541H15.3979C13.6586 24.2541 12.2999 25.5803 12.2455 27.3521C12.202 29.0696 13.5934 30.5045 15.3544 30.548C15.3761 30.548 15.4088 30.548 15.4414 30.548C17.1263 30.548 18.5177 29.1457 18.5503 27.4173C18.5611 26.5912 18.2459 25.7977 17.6589 25.1998C17.0719 24.6019 16.2893 24.265 15.4414 24.2541Z" fill="white"/>
</svg>
