<svg width="36" height="39" viewBox="0 0 36 39" fill="none" xmlns="http://www.w3.org/2000/svg">
<path d="M37.8488 37.0257H33.0869C36.661 34.0136 34.5553 28.1315 29.8441 28.1315H29.4237C29.7157 27.0992 29.5051 26.686 28.7056 23.0896C27.9725 19.7912 25.5008 17.0468 22.111 16.059C22.9182 15.5153 23.549 14.7298 23.9007 13.8076C24.0238 13.7289 23.9917 13.7504 24.7488 12.7264C27.3805 9.16635 25.575 4.43661 21.8394 3.05069V2.63511C21.8394 1.32731 20.7755 0.263351 19.4677 0.263351C18.1599 0.263351 17.0959 1.32731 17.0959 2.63511V3.05069C13.3591 4.43698 11.5557 9.16761 14.1866 12.7264C14.9465 13.7543 14.9115 13.7289 15.0346 13.8076C15.3863 14.7292 16.0165 15.5143 16.8229 16.058C15.5623 16.4254 14.3816 17.0534 13.3655 17.9113C13.1153 18.1226 13.0837 18.4966 13.295 18.7469C13.5063 18.997 13.8803 19.0287 14.1306 18.8173C16.3176 16.9707 19.3437 16.3579 22.1393 17.3118C21.2805 20.5396 18.6584 22.9634 15.3311 23.5504L14.8825 23.6296L15.3029 21.7378C15.374 21.4181 15.1724 21.1014 14.8528 21.0303C14.5331 20.9593 14.2163 21.1609 14.1453 21.4805C14.0075 22.1006 13.2403 25.5534 13.0626 26.3527H12.3524C12.0249 26.3527 11.7595 26.6181 11.7595 26.9456C11.7595 27.273 12.0249 27.5385 12.3524 27.5385H14.5803C16.3608 27.5385 18.0348 26.8452 19.294 25.5861C19.4098 25.4703 19.4677 25.3186 19.4677 25.1668C19.4773 25.1668 19.439 25.3837 19.6413 25.5861C21.8126 27.7573 24.0075 27.5386 26.583 27.5386C26.9104 27.5386 27.1759 27.2731 27.1759 26.9457C27.1759 26.6182 26.9104 26.3527 26.583 26.3527H25.8727L25.0821 22.7951H27.403C27.522 23.1958 27.4607 22.9576 28.3121 26.7884C28.6004 28.0854 27.6117 29.3174 26.2834 29.3174H21.3422C22.0004 27.9356 20.981 26.3527 19.4675 26.3527C19.1401 26.3527 18.8746 26.6182 18.8746 26.9457C18.8746 27.2731 19.1401 27.5386 19.4675 27.5386C19.7049 27.5386 19.9282 27.6312 20.0963 27.7992C20.6519 28.3547 20.2627 29.3174 19.4677 29.3174H12.6518C11.5059 29.3174 10.5736 28.3851 10.5736 27.2392C10.5736 26.9285 10.5549 27.0871 11.3872 23.3474C11.4706 22.9726 11.5807 22.6024 11.7137 22.2469C11.8285 21.9402 11.6729 21.5985 11.3662 21.4838C11.0596 21.369 10.7179 21.5246 10.6031 21.8313C10.4509 22.2379 10.3251 22.6612 10.2297 23.0898C9.42564 26.7027 9.2213 27.1078 9.51273 28.1315H9.09123C4.40292 28.1315 2.26552 34.0026 5.84451 37.0257H1.08653C0.75908 37.0257 0.493591 37.2911 0.493591 37.6186C0.493591 37.946 0.75908 38.2115 1.08653 38.2115H37.8488C38.1763 38.2115 38.4418 37.946 38.4418 37.6186C38.4418 37.2911 38.1763 37.0257 37.8488 37.0257ZM15.91 12.1222C15.91 8.86543 15.8934 8.95386 15.9598 8.56029C16.546 8.51901 17.0638 8.17577 17.3302 7.64294C17.3696 7.56378 17.4308 7.49693 17.5045 7.4512C17.6693 7.35017 17.4687 7.37864 21.1768 7.37864C21.6811 7.37864 21.5253 7.88523 22.221 8.31696C22.4508 8.45786 22.7094 8.54102 22.9754 8.56022C23.0454 8.97468 23.0253 8.92658 23.0253 12.1222C23.0253 14.0838 21.4294 15.6798 19.4677 15.6798C17.506 15.6798 15.91 14.0838 15.91 12.1222ZM14.006 37.0257C13.4953 37.0257 13.3547 36.3146 13.8323 36.1236C16.3255 35.1264 16.1649 35.1965 16.2389 35.1472C17.4958 34.3105 17.7334 34.061 18.3905 34.061C19.1339 34.061 19.7912 34.5348 20.0262 35.2399L20.091 35.4344C20.189 35.7283 20.4964 35.8973 20.7974 35.8221L28.3618 33.931V37.0257H14.006ZM10.5736 33.931L13.9872 34.7843L13.3919 35.0225C12.5835 35.3459 12.1819 36.2193 12.4202 37.0256H10.5736V33.931Z" fill="white"/>
</svg>
