<svg width="39" height="39" viewBox="0 0 39 39" fill="none" xmlns="http://www.w3.org/2000/svg">
<g clip-path="url(#clip0_15_10)">
<path d="M0.491455 19.2628C0.491455 8.85822 8.92584 0.423828 19.3304 0.423828C29.7351 0.423828 38.1694 8.85822 38.1694 19.2628C38.1694 29.6674 29.7351 38.1018 19.3304 38.1018C8.92584 38.1018 0.491455 29.6674 0.491455 19.2628Z" fill="white"/>
<path d="M13.7817 14.6918C13.7817 15.9845 13.1604 17.032 12.3938 17.032C11.6272 17.032 11.0052 15.9845 11.0052 14.6918C11.0052 13.3991 11.6272 12.3524 12.3938 12.3524C13.1604 12.3524 13.7817 13.3998 13.7817 14.6918Z" fill="#EF5DA8"/>
<path d="M27.6595 14.6918C27.6595 15.9845 27.0375 17.032 26.2709 17.032C25.5043 17.032 24.883 15.9845 24.883 14.6918C24.883 13.3991 25.5043 12.3524 26.2709 12.3524C27.0375 12.3524 27.6595 13.3998 27.6595 14.6918Z" fill="#EF5DA8"/>
<path d="M6.67163 21.044C7.38957 27.402 12.7816 32.3433 19.3307 32.3433C25.8799 32.3433 31.2719 27.402 31.9899 21.044H6.67163Z" fill="#EF5DA8"/>
</g>
<defs>
<clipPath id="clip0_15_10">
<rect width="37.678" height="37.678" fill="white" transform="translate(0.491455 0.423828)"/>
</clipPath>
</defs>
</svg>
