<svg width="18" height="21" viewBox="0 0 18 21" fill="none" xmlns="http://www.w3.org/2000/svg">
<path d="M10.7386 21H3.27273C2.40504 20.9991 1.57316 20.6828 0.959606 20.1204C0.346056 19.5579 0.000947483 18.7954 0 18V3C0.000947483 2.20462 0.346056 1.44206 0.959606 0.879641C1.57316 0.317219 2.40504 0.000867844 3.27273 0H10.7386V21ZM14.7273 21H13.8068V0H14.7273C15.595 0.000867844 16.4268 0.317219 17.0404 0.879641C17.6539 1.44206 17.9991 2.20462 18 3V18C17.9991 18.7954 17.6539 19.5579 17.0404 20.1204C16.4268 20.6828 15.595 20.9991 14.7273 21Z" fill="#D30A9A"/>
</svg>
