<svg width="31" height="25" viewBox="0 0 31 25" fill="none" xmlns="http://www.w3.org/2000/svg">
<path d="M31.0001 20.2523C30.4932 21.0619 29.7542 21.6126 29.0024 22.1304C26.8853 23.5922 24.5562 24.2312 22.0149 24.0474C20.8861 23.9701 19.7764 23.7051 18.7278 23.2622C22.9592 23.0775 26.4994 21.3672 29.3516 18.063C29.9466 18.5884 30.6306 18.9957 31.0001 19.7497V20.2523Z" fill="#D30A9A"/>
<path d="M10.8024 10.7284C10.8752 6.55631 12.1833 3.18713 14.7849 0.372867C15.2457 -0.125553 15.7712 -0.123023 16.2344 0.372867C18.3299 2.6322 19.6453 5.30478 20.0446 8.42434C20.6429 13.0822 19.3397 17.1168 16.2619 20.5357C15.7728 21.0788 15.2457 21.0679 14.7485 20.5306C12.7551 18.4054 11.4435 15.687 10.9948 12.7507C10.8711 11.9968 10.8469 11.2259 10.8024 10.7284Z" fill="#D30A9A"/>
<path d="M19.7657 18.9754C20.1489 18.1253 20.5741 17.2828 20.9153 16.4032C21.8046 14.0848 22.128 11.6703 21.9428 9.17822C21.8312 7.67022 21.5152 6.18633 21.0042 4.77087C20.9234 4.55497 20.9533 4.44449 21.1546 4.35932C22.0948 3.96463 23.0237 3.5362 23.9753 3.17862C24.5849 2.94755 25.0877 3.26296 25.2316 3.92836C26.3866 9.22742 25.1117 13.7885 21.4068 17.6117C20.9703 18.0596 20.461 18.4289 19.9823 18.8321C19.9128 18.8841 19.8405 18.932 19.7657 18.9754Z" fill="#D30A9A"/>
<path d="M11.2201 19.0429C10.5556 18.4399 9.85304 17.8757 9.23215 17.2263C7.13665 15.0336 5.90943 12.3778 5.48014 9.32239C5.23549 7.52755 5.33608 5.69986 5.77603 3.94603C5.93772 3.26629 6.42279 2.94328 7.04934 3.17773C7.97421 3.52435 8.87482 3.93675 9.78998 4.31541C10.0511 4.42252 10.0948 4.56252 9.9929 4.83829C9.21922 6.93824 8.92494 9.12251 9.04055 11.3599C9.16441 13.9194 9.87675 16.4102 11.1175 18.622L11.2994 18.9484L11.2201 19.0429Z" fill="#D30A9A"/>
<path d="M3.75753 10.0825C4.66703 14.974 7.16757 18.678 11.2527 21.2696C11.0853 21.2493 10.9172 21.2308 10.7498 21.2072C10.5825 21.1836 10.4103 21.165 10.2429 21.1287C5.91824 20.1876 2.83967 17.6207 1.00718 13.4281C0.764648 12.8681 0.602958 12.2677 0.426716 11.6773C0.390353 11.5645 0.375886 11.4453 0.38416 11.3266C0.392433 11.2079 0.423282 11.0921 0.474905 10.9859C0.526529 10.8798 0.597894 10.7854 0.684839 10.7084C0.771784 10.6313 0.872568 10.5731 0.981312 10.5371C1.88163 10.2502 2.81624 10.0972 3.75753 10.0825Z" fill="#D30A9A"/>
<path d="M19.7651 21.2813C23.8381 18.6914 26.3411 14.9857 27.2667 10.0386C27.9006 10.123 28.5344 10.2073 29.1666 10.3085C29.4243 10.3528 29.679 10.4145 29.929 10.4932C30.4731 10.6619 30.7455 11.1527 30.5814 11.7152C29.0866 16.8318 25.8164 19.9505 20.8258 21.1211C20.4782 21.2029 20.1192 21.2299 19.7651 21.2813Z" fill="#D30A9A"/>
<path d="M1.65157 18.0477C4.51591 21.3662 8.05449 23.074 12.3021 23.3093C11.8008 23.4653 11.3069 23.6602 10.7968 23.7715C6.85152 24.6334 3.38246 23.6635 0.419491 20.7919C-0.136722 20.253 -0.141573 19.7192 0.415449 19.1744C0.808355 18.7864 1.23117 18.428 1.65157 18.0477Z" fill="#D30A9A"/>
</svg>
