<svg width="17" height="20" viewBox="0 0 17 20" fill="none" xmlns="http://www.w3.org/2000/svg">
<path d="M8 0.25C7.80108 0.25 7.61032 0.329018 7.46967 0.46967C7.32901 0.610322 7.25 0.801088 7.25 1V12.26C6.50001 11.6238 5.55259 11.2674 4.56923 11.2515C3.58587 11.2356 2.62744 11.5613 1.85732 12.173C1.08721 12.7847 0.553076 13.6446 0.345975 14.606C0.138874 15.5674 0.271625 16.5709 0.7216 17.4454C1.17157 18.32 1.91092 19.0113 2.8136 19.4018C3.71628 19.7922 4.72642 19.8574 5.67183 19.5864C6.61724 19.3154 7.4394 18.7249 7.99815 17.9155C8.55691 17.1062 8.81767 16.1281 8.736 15.148C8.74433 15.0991 8.74901 15.0496 8.75 15V5.75H14C14.7293 5.75 15.4288 5.46027 15.9445 4.94454C16.4603 4.42882 16.75 3.72935 16.75 3C16.75 2.27065 16.4603 1.57118 15.9445 1.05546C15.4288 0.539731 14.7293 0.25 14 0.25H8Z" fill="#D30A9A"/>
</svg>
