<svg width="17" height="17" viewBox="0 0 17 17" fill="none" xmlns="http://www.w3.org/2000/svg">
<path d="M8.02494 13.3776L13.8801 7.52239C12.8951 7.1109 12.0005 6.51 11.247 5.7538C10.4905 5.00017 9.88929 4.10528 9.47765 3.11993L3.62249 8.97509C3.16569 9.43189 2.9369 9.66068 2.74057 9.91243C2.50892 10.2097 2.31011 10.5311 2.14761 10.8711C2.01065 11.1593 1.90853 11.4665 1.70428 12.0792L0.626027 15.3116C0.5764 15.4596 0.569038 15.6185 0.604766 15.7705C0.640494 15.9224 0.717898 16.0614 0.828275 16.1718C0.938653 16.2821 1.07763 16.3595 1.22958 16.3953C1.38154 16.431 1.54044 16.4236 1.68844 16.374L4.92082 15.2958C5.53436 15.0915 5.84074 14.9894 6.1289 14.8524C6.47037 14.6899 6.78994 14.4922 7.08761 14.2595C7.33936 14.0631 7.56815 13.8343 8.02494 13.3776ZM15.5046 5.89789C16.0884 5.31408 16.4164 4.52228 16.4164 3.69666C16.4164 2.87104 16.0884 2.07923 15.5046 1.49543C14.9208 0.911625 14.129 0.583649 13.3034 0.583649C12.4778 0.583649 11.686 0.911625 11.1022 1.49543L10.3999 2.19764L10.43 2.28551C10.776 3.27571 11.3423 4.17442 12.0862 4.91384C12.8477 5.68003 13.7779 6.25749 14.8024 6.60009L15.5046 5.89789Z" fill="#1E1E1E"/>
</svg>
