<svg width="39" height="36" viewBox="0 0 39 36" fill="none" xmlns="http://www.w3.org/2000/svg">
<path d="M34.134 19.6046C33.0659 19.0651 31.8791 18.7846 30.7138 18.7846C28.1783 18.7846 26.042 20.1009 25.1357 22.2156C24.4128 23.8988 24.5099 26.4559 25.3623 28.0203C25.9125 29.0345 27.1533 30.1135 29.0091 30.1135C29.3759 30.1135 29.7535 30.0703 30.1312 29.9948C31.1562 29.779 32.6019 28.2469 32.9472 27.0277C33.2062 26.1106 32.2135 24.5462 31.1885 23.8125C31.113 23.7585 31.0267 23.7585 30.962 23.7585C30.8325 23.7585 30.1851 23.7801 29.8722 24.1793C29.7643 24.3088 29.6457 24.5462 29.7212 24.8914L29.7428 24.9777L29.8075 25.0317C30.4656 25.6683 30.8109 26.4343 30.6706 26.9414C30.5735 27.2867 30.2714 27.524 29.7643 27.6535C29.2788 27.5672 28.5883 27.1572 28.3509 26.8659C27.9086 26.3156 27.5094 24.9669 27.6928 24.2333C28.0165 22.9385 29.3328 22.0322 30.908 22.0322C31.9977 22.0322 32.9688 22.4962 33.573 23.3054C34.5656 24.6433 35.2777 27.1896 34.6951 28.4519C33.9722 30.0379 31.9546 31.6887 30.0017 32.2929C29.5054 32.444 28.9983 32.5195 28.5128 32.5195C26.6138 32.5195 24.7581 31.3435 23.3015 29.218C21.5428 26.6609 21.4457 23.9743 23.0102 21.428C23.6683 20.3707 24.5746 19.4212 25.4594 18.5041C25.8802 18.0725 26.3117 17.6302 26.7109 17.177C29.4407 14.0805 30.0988 10.5092 28.6854 6.54946C27.477 3.1508 24.812 1.06845 20.9818 0.507405C20.6257 0.453458 20.2697 0.431885 19.9136 0.431885C16.5366 0.431885 13.3105 2.61134 12.0697 5.71868C10.8074 8.87997 11.7892 12.3326 14.5081 14.3178C15.5439 15.0731 16.8818 15.4831 18.2629 15.4831C20.0647 15.4831 21.7155 14.771 22.7081 13.5734C24.6286 11.2428 24.6178 8.59945 22.6649 6.85157C22.0068 6.25815 20.8631 6.04236 20.0107 6.04236C19.5792 6.04236 19.2015 6.09631 18.9102 6.18263C18.2413 6.39841 16.7847 7.75788 16.7739 8.63182C16.7739 8.96629 16.9573 9.22523 17.3026 9.34391L17.3565 9.36549H17.4105C17.5508 9.36549 17.6371 9.27918 17.7989 9.12813C18.1334 8.80444 18.8347 8.14629 19.7949 8.14629C20.151 8.14629 20.5286 8.2434 20.8955 8.42682C21.2084 8.58866 21.2731 8.97708 21.2839 9.20365C21.3162 9.98049 20.8199 11.1026 19.946 11.6313C19.4605 11.9226 18.716 12.106 18.0039 12.106C17.5939 12.106 17.2163 12.052 16.925 11.9334C15.8892 11.5449 15.1771 10.7142 14.8966 9.58128C14.5513 8.16787 14.9829 6.58183 16.0079 5.43816C17.0329 4.30527 18.4571 3.67949 20.0215 3.67949C21.9312 3.67949 23.7654 4.62895 24.9199 6.22578C26.4196 8.28655 26.6462 10.9407 25.5241 13.3144C24.3912 15.7312 22.1362 17.2633 19.5036 17.4252C19.3202 17.436 19.126 17.436 18.9318 17.436C17.5292 17.436 16.0726 17.1446 14.67 16.8641C13.7421 16.6807 12.7818 16.4865 11.8432 16.3786C11.4548 16.3354 11.0555 16.3139 10.6671 16.3139C5.68243 16.3139 1.38826 19.9607 0.665368 24.7835C-0.0359418 29.4877 3.11456 33.9006 7.84031 34.8392C8.32583 34.9363 8.83293 34.9903 9.31845 34.9903C12.5121 34.9903 15.285 33.005 16.3747 29.9301C17.5076 26.7472 16.1913 23.4349 13.3753 22.3883C12.7495 22.1617 12.005 22.043 11.2066 22.043C10.1277 22.043 9.05951 22.2588 8.18557 22.6364C7.08505 23.122 6.11401 24.9885 6.24348 26.3911C6.40532 28.2685 7.31163 28.7324 8.17478 29.1748L8.27188 29.2287C8.57399 29.3798 9.13503 29.5632 9.72845 29.5632C10.6455 29.5632 11.2498 29.1424 11.4224 28.3764L11.4332 28.344C11.5626 27.114 10.5377 26.5961 9.85792 26.2401C9.64214 26.1322 9.2753 25.9488 9.25372 25.8517C9.25372 25.7114 9.54503 25.6143 9.95503 25.6143C10.9153 25.6143 12.21 26.0998 12.5553 26.7903C12.9868 27.6751 13.0947 29.1532 12.4366 30.1458C11.6921 31.2572 10.6995 31.8182 9.45872 31.8182C8.53083 31.8182 7.48426 31.4837 6.43769 30.8687C3.97771 29.4014 3.12535 26.0351 4.52797 23.3593C5.93059 20.6836 8.29346 19.3565 11.3145 19.5399C14.616 19.7341 17.0544 21.5575 18.3815 24.8159C18.6836 25.5711 18.9102 26.3803 19.126 27.1572C19.4065 28.193 19.7086 29.2611 20.1942 30.2322C21.9744 33.7603 25.1141 35.7024 29.0414 35.7024C29.1817 35.7024 29.3328 35.7024 29.473 35.6916C33.5514 35.5513 36.4969 33.4798 37.9751 29.7035C39.464 25.884 37.7808 21.4496 34.134 19.6046Z" fill="white"/>
</svg>
