<svg width="18" height="19" viewBox="0 0 18 19" fill="none" xmlns="http://www.w3.org/2000/svg">
<path d="M18 15.2317V19H0V15.2443H0.81C1.0155 15.3689 1.2405 15.4646 1.485 15.5314C1.72875 15.5976 1.98375 15.6307 2.25 15.6307C3.1065 15.6307 3.84 15.3443 4.4505 14.7714C5.061 14.1986 5.36588 13.5104 5.36513 12.7068C5.36438 11.9031 5.0595 11.2153 4.4505 10.6432C3.8415 10.0711 3.108 9.78465 2.25 9.78394C2.025 9.78394 1.809 9.81033 1.602 9.86311C1.395 9.91589 1.20262 9.99119 1.02487 10.089H0V6.33333H5.8635V5.84672C5.5965 5.55539 5.39625 5.22359 5.26275 4.85133C5.12925 4.47907 5.0625 4.09344 5.0625 3.69444C5.0625 2.6593 5.44313 1.78494 6.20438 1.07139C6.96488 0.357129 7.89675 0 9 0C10.1032 0 11.0355 0.357129 11.7968 1.07139C12.558 1.78565 12.9382 2.66 12.9375 3.69444C12.9375 4.09344 12.8707 4.47907 12.7372 4.85133C12.6037 5.22359 12.4039 5.55539 12.1376 5.84672V6.33333H18V10.1017H16.9875C16.8098 9.99963 16.6174 9.92117 16.4104 9.86628C16.2026 9.81139 15.9825 9.78394 15.75 9.78394C14.8935 9.78394 14.16 10.0704 13.5495 10.6432C12.939 11.216 12.6341 11.9039 12.6349 12.7068C12.6356 13.5097 12.9405 14.1979 13.5495 14.7714C14.1585 15.345 14.892 15.6314 15.75 15.6307C16.0238 15.6307 16.2829 15.5962 16.5274 15.5272C16.7719 15.459 16.9972 15.3604 17.2035 15.2317H18Z" fill="#D30A9A"/>
</svg>
